<svg xmlns="http://www.w3.org/2000/svg" enable-background="new 0 0 24 24" viewBox="0 0 24 24" width="288" height="288">
  <path d="M9.975,10.374c0,1.41,0,1.853,0,3.26L12.811,12L9.975,10.374z" fill="#45505b" class="color000 svgShape"></path>
  <polygon points="7.5 15.061 8.926 14.239 8.926 9.773 7.5 8.955" fill="#45505b" class="color000 svgShape"></polygon>
  <path d="M9.975,7.574c0,0,0,1.133,0,1.615C12.35,10.558,14.85,12,14.85,12l-4.875,2.811c0,0.482,0,1.615,0,1.615L17.625,12L9.975,7.574z" fill="#45505b" class="color000 svgShape"></path>
  <path d="M12,0C5.4,0,0,5.4,0,12c0,6.6,5.4,12,12,12s12-5.4,12-12C24,5.4,18.6,0,12,0z M8.926,18.196v-2.78l-2.477,1.428V7.155c0,0,1.447,0.834,2.477,1.428V5.805L19.68,12L8.926,18.196z" fill="#45505b" class="color000 svgShape"></path>
</svg>
